<?xml version="1.0" standalone="no"?>
<!DOCTYPE svg PUBLIC "-//W3C//DTD SVG 20010904//EN"
 "http://www.w3.org/TR/2001/REC-SVG-20010904/DTD/svg10.dtd">
<svg version="1.0" xmlns="http://www.w3.org/2000/svg"
 width="225.000000pt" height="225.000000pt" viewBox="0 0 225.000000 225.000000"
 preserveAspectRatio="xMidYMid meet">

<g transform="translate(0.000000,225.000000) scale(0.100000,-0.100000)"
fill="#FFFFFF" stroke="none">
<path d="M1058 2002 c-44 -20 -1039 -846 -1052 -873 -7 -14 -2 -28 17 -56 43
-61 87 -103 107 -103 11 0 231 176 502 402 265 221 487 401 493 401 6 0 228
-180 493 -401 275 -230 490 -402 501 -402 21 0 65 42 108 103 19 27 24 42 17
56 -5 10 -78 75 -161 145 l-153 126 0 295 c0 357 18 325 -180 325 -188 0 -180
8 -180 -176 l0 -144 -174 145 c-217 181 -252 197 -338 157z"/>
<path d="M722 1326 l-402 -331 2 -358 3 -359 28 -24 28 -24 285 0 284 0 0 270
0 270 175 0 175 0 0 -270 0 -270 284 0 285 0 28 24 28 24 3 359 2 358 -322
265 c-177 146 -358 295 -403 331 l-80 67 -403 -332z"/>
</g>
</svg>
